<svg xmlns="http://www.w3.org/2000/svg" xmlns:svg="http://www.w3.org/2000/svg" id="svg4924" width="48" height="48" version="1.1" viewBox="0 0 48 48"><metadata id="metadata4929"/><g id="layer1" transform="translate(-221.17598,-670.32414)" style="display:inline"><g style="display:inline" id="g5369" transform="matrix(0.39999996,0,0,0.39999996,221.17843,694.31193)"><path style="fill:#fff;stroke:none;stroke-width:4.18779993;stroke-linecap:butt;stroke-linejoin:miter;stroke-miterlimit:10;stroke-dasharray:none;stroke-opacity:1" id="path5280" d="m 117.90608,4e-5 c 0,-31.98037 -25.925273,-57.90611 -57.906104,-57.90611 -31.980369,0 -57.9060994,25.92574 -57.9060994,57.90611 0,31.980361 25.9257304,57.906099 57.9060994,57.906099 31.980831,0 57.906104,-25.925738 57.906104,-57.906099 z"/><path style="fill:#aacbe6;fill-opacity:1;fill-rule:nonzero;stroke:none" id="path5282" d="m 45.33005,-26.80855 -3.867187,1.67382 -4.886719,30.77734 -10.748047,2.93164 0,38.107427 -0.0332,0.0469 c 9.584012,7.02713 21.41042,11.17773 34.205078,11.17773 25.579545,0 47.285075,-16.5858 54.949215,-39.589847 l 0.0957,0.0312 -0.0898,-0.0527 c 1.91353,-5.75078 2.95117,-11.90144 2.95117,-18.29492 0,-3.51077 -0.31177,-6.94701 -0.91016,-10.28516 L 45.33005,-26.80855 Z"/><path id="path5284" d="m 115.04447,18.34822 -73.582435,-43.48285 -4.885301,30.778 -10.747755,2.93146 0,38.106187 -0.0335,0.0479 c 9.584013,7.02713 21.409894,11.17724 34.204553,11.17724 25.579547,0 47.284908,-16.58555 54.949048,-39.589607" style="fill:#377eb8;fill-opacity:1;fill-rule:nonzero;stroke:none"/><path id="path5286" d="m 117.8941,0.03052935 c 0,-31.97712035 -25.922642,-57.90022535 -57.900222,-57.90022535 -31.977116,0 -57.9002148,25.923105 -57.9002148,57.90022535 0,31.97711065 25.9230988,57.90021365 57.9002148,57.90021365 31.97758,0 57.900222,-25.923103 57.900222,-57.90021365 z" style="fill:none;stroke:#000;stroke-width:4.19957352;stroke-linecap:butt;stroke-linejoin:miter;stroke-miterlimit:10;stroke-dasharray:none;stroke-opacity:1"/></g></g><g id="layer2" transform="translate(-7.4225275e-6,-12.000066)" style="display:inline"><g style="display:inline" id="g5381" transform="matrix(0.39999996,0,0,0.39999996,0.00245861,-60.002375)"><path style="fill:#fff;stroke:none;stroke-width:4.18779993;stroke-linecap:butt;stroke-linejoin:miter;stroke-miterlimit:10;stroke-dasharray:none;stroke-opacity:1" id="path5300" d="m 117.90608,240.00004 c 0,-31.98037 -25.925273,-57.90611 -57.906104,-57.90611 -31.980369,0 -57.9060994,25.92574 -57.9060994,57.90611 0,31.98036 25.9257304,57.9061 57.9060994,57.9061 31.980831,0 57.906104,-25.92574 57.906104,-57.9061 z"/><path style="fill:#f49c9d;fill-opacity:1;fill-rule:nonzero;stroke:none" id="path5302" d="m 45.33005,213.19145 -3.867187,1.67382 -4.886719,30.77734 -10.748047,2.93164 0,38.10743 -0.0332,0.0469 c 9.584012,7.02713 21.41042,11.17773 34.205078,11.17773 25.579545,0 47.285075,-16.5858 54.949215,-39.58985 l 0.0957,0.0312 -0.0898,-0.0527 c 1.91353,-5.75078 2.95117,-11.90144 2.95117,-18.29492 0,-3.51077 -0.31177,-6.94701 -0.91016,-10.28516 L 45.33005,213.19145 Z"/><path id="path5304" d="m 115.04447,258.34822 -73.582435,-43.48285 -4.885301,30.778 -10.747755,2.93146 0,38.10619 -0.0335,0.0479 c 9.584013,7.02713 21.409894,11.17724 34.204553,11.17724 25.579547,0 47.284908,-16.58555 54.949048,-39.58961" style="fill:#e41a1c;fill-opacity:1;fill-rule:nonzero;stroke:none"/><path id="path5306" d="m 117.8941,240.00614 c 0,-31.97712 -25.922642,-57.90023 -57.900222,-57.90023 -31.977116,0 -57.9002148,25.92311 -57.9002148,57.90023 0,31.97711 25.9230988,57.90021 57.9002148,57.90021 31.97758,0 57.900222,-25.9231 57.900222,-57.90021 z" style="fill:none;stroke:#000;stroke-width:4.19957352;stroke-linecap:butt;stroke-linejoin:miter;stroke-miterlimit:10;stroke-dasharray:none;stroke-opacity:1"/></g></g><g id="layer3" transform="translate(-7.4225275e-6,-12.000066)" style="display:inline"><g style="display:inline" id="g5375" transform="matrix(0.39999996,0,0,0.39999996,0.00245861,-12.00726)"><path id="path5290" d="m 117.90608,120.00004 c 0,-31.98037 -25.925273,-57.90611 -57.906104,-57.90611 -31.980369,0 -57.9060994,25.92574 -57.9060994,57.90611 0,31.98036 25.9257304,57.9061 57.9060994,57.9061 31.980831,0 57.906104,-25.92574 57.906104,-57.9061 z" style="fill:#fff;stroke:none;stroke-width:4.18779993;stroke-linecap:butt;stroke-linejoin:miter;stroke-miterlimit:10;stroke-dasharray:none;stroke-opacity:1"/><path id="path5292" d="m 45.33005,93.19145 -3.867187,1.67382 -4.886719,30.77734 -10.748047,2.93164 0,38.10743 -0.0332,0.0469 c 9.584012,7.02713 21.41042,11.17773 34.205078,11.17773 25.579545,0 47.285075,-16.5858 54.949215,-39.58985 l 0.0957,0.0312 -0.0898,-0.0527 c 1.91353,-5.75078 2.95117,-11.90144 2.95117,-18.29492 0,-3.51077 -0.31177,-6.94701 -0.91016,-10.28516 L 45.33005,93.19145 Z" style="fill:#d6b5db;fill-opacity:1;fill-rule:nonzero;stroke:none"/><path style="fill:#974ea2;fill-opacity:1;fill-rule:nonzero;stroke:none" id="path5294" d="m 115.04447,138.34822 -73.582435,-43.48285 -4.885301,30.778 -10.747755,2.93146 0,38.10619 -0.0335,0.0479 c 9.584013,7.02713 21.409894,11.17724 34.204553,11.17724 25.579547,0 47.284908,-16.58555 54.949048,-39.58961"/><path style="fill:none;stroke:#000;stroke-width:4.19957352;stroke-linecap:butt;stroke-linejoin:miter;stroke-miterlimit:10;stroke-dasharray:none;stroke-opacity:1" id="path5296" d="m 117.8941,120.01833 c 0,-31.977116 -25.922642,-57.900221 -57.900222,-57.900221 -31.977116,0 -57.9002148,25.923105 -57.9002148,57.900221 0,31.97711 25.9230988,57.90022 57.9002148,57.90022 31.97758,0 57.900222,-25.92311 57.900222,-57.90022 z"/></g></g><g id="layer4" transform="translate(-7.4225275e-6,-12.000066)" style="display:inline"><g style="display:inline" id="g5363" transform="matrix(0.39999996,0,0,0.39999996,0.00245865,83.982979)"><path id="path4113" d="m 117.90608,-119.99997 c 0,-31.98037 -25.925273,-57.90611 -57.906104,-57.90611 -31.980369,0 -57.9060996,25.92574 -57.9060996,57.90611 0,31.980361 25.9257306,57.906099 57.9060996,57.906099 31.980831,0 57.906104,-25.925738 57.906104,-57.906099 z" style="fill:#fff;stroke:none;stroke-width:4.18779993;stroke-linecap:butt;stroke-linejoin:miter;stroke-miterlimit:10;stroke-dasharray:none;stroke-opacity:1"/><path id="path4117" d="m 45.33005,-146.80856 -3.867187,1.67382 -4.886719,30.77734 -10.748047,2.93164 0,38.107427 -0.0332,0.0469 c 9.584012,7.02713 21.41042,11.17773 34.205078,11.17773 25.579545,0 47.285075,-16.5858 54.949215,-39.589847 l 0.0957,0.0312 -0.0898,-0.0527 c 1.91353,-5.75078 2.95117,-11.90144 2.95117,-18.29492 0,-3.51077 -0.31177,-6.94701 -0.91016,-10.28516 l -71.66605,-16.52343 z" style="fill:#b3deb2;fill-opacity:1;fill-rule:nonzero;stroke:none"/><path style="fill:#4daf4a;fill-opacity:1;fill-rule:nonzero;stroke:none" id="path172" d="m 115.04447,-101.65179 -73.582435,-43.48285 -4.885301,30.778 -10.747755,2.93146 0,38.106187 -0.0335,0.0479 c 9.584013,7.02713 21.409894,11.17724 34.204553,11.17724 25.579547,0 47.284908,-16.58555 54.949048,-39.589607"/><path style="fill:none;stroke:#000;stroke-width:4.19957352;stroke-linecap:butt;stroke-linejoin:miter;stroke-miterlimit:10;stroke-dasharray:none;stroke-opacity:1" id="path220" d="m 117.8941,-119.95729 c 0,-31.97712 -25.922642,-57.90022 -57.900222,-57.90022 -31.977116,0 -57.900215,25.9231 -57.900215,57.90022 0,31.977116 25.923099,57.900219 57.900215,57.900219 31.97758,0 57.900222,-25.923103 57.900222,-57.900219 z"/></g></g></svg>