<svg xmlns="http://www.w3.org/2000/svg" xmlns:svg="http://www.w3.org/2000/svg" id="svg4924" width="380" height="120" version="1.1" viewBox="0 0 380 120"><defs id="defs4926"><clipPath id="clipPath202" clipPathUnits="userSpaceOnUse"><path id="path204" d="M 0,600 1500,600 1500,0 0,0 0,600 Z"/></clipPath><clipPath id="clipPath158" clipPathUnits="userSpaceOnUse"><path id="path160" d="M 0,600 1500,600 1500,0 0,0 0,600 Z"/></clipPath><clipPath id="clipPath86" clipPathUnits="userSpaceOnUse"><path id="path88" d="M 0,600 1500,600 1500,0 0,0 0,600 Z"/></clipPath><clipPath id="clipPath94" clipPathUnits="userSpaceOnUse"><path id="path96" d="m 804.509,211 164.286,0 0,-96.981 -164.286,0 0,96.981 z"/></clipPath><clipPath id="clipPath110" clipPathUnits="userSpaceOnUse"><path id="path112" d="m 804.597,506 164.286,0 0,-96.981 -164.286,0 0,96.981 z"/></clipPath><clipPath id="clipPath126" clipPathUnits="userSpaceOnUse"><path id="path128" d="m 133.598,209 164.285,0 0,-96.981 -164.285,0 0,96.981 z"/></clipPath><clipPath id="clipPath142" clipPathUnits="userSpaceOnUse"><path id="path144" d="m 133.686,504 164.286,0 0,-96.981 -164.286,0 0,96.981 z"/></clipPath><clipPath id="clipPath54" clipPathUnits="userSpaceOnUse"><path id="path56" d="M 0,600 1500,600 1500,0 0,0 0,600 Z"/></clipPath><clipPath id="clipPath30" clipPathUnits="userSpaceOnUse"><path id="path32" d="M 0,600 1500,600 1500,0 0,0 0,600 Z"/></clipPath></defs><metadata id="metadata4929"/><g id="layer1" transform="translate(-221.17594,-598.32411)" style="display:none"><g style="display:inline" id="g3509" transform="translate(-3.1831135e-6,4.3371042e-6)"><flowRoot style="font-style:normal;font-variant:normal;font-weight:400;font-stretch:normal;font-size:52.46426392px;line-height:125%;font-family:Michroma;-inkscape-font-specification:Michroma;letter-spacing:0;word-spacing:0;display:inline;fill:#000;fill-opacity:1;stroke:none;stroke-width:1px;stroke-linecap:butt;stroke-linejoin:miter;stroke-opacity:1" id="flowRoot5674-6-8-8-6" transform="translate(397.88815,-1473.0326)" xml:space="preserve"><flowRegion id="flowRegion5676-1-5-9-8"><rect style="font-style:normal;font-variant:normal;font-weight:400;font-stretch:normal;font-size:52.46426392px;font-family:Michroma;-inkscape-font-specification:Michroma" id="rect5678-0-9-7-9" width="616.247" height="383.072" x="-40.786" y="2079.174"/></flowRegion><flowPara style="font-style:normal;font-variant:normal;font-weight:400;font-stretch:normal;font-size:50.00000381px;font-family:Michroma;-inkscape-font-specification:Michroma;text-align:start;text-anchor:start" id="flowPara5680-6-75-7-06">Sarek</flowPara><flowPara style="font-style:normal;font-variant:normal;font-weight:400;font-stretch:normal;font-family:Michroma;-inkscape-font-specification:Michroma;text-align:start;text-anchor:start" id="flowPara5682-3-3-6-8"/></flowRoot><path style="display:inline;fill:none;fill-opacity:1;fill-rule:evenodd;stroke:#377eb8;stroke-width:4.20000029;stroke-linecap:butt;stroke-linejoin:miter;stroke-miterlimit:4;stroke-dasharray:none;stroke-opacity:1" id="path5765-9-4-7" d="m 389.07266,663.19468 159.33699,0"/><flowRoot id="flowRoot4855-2-3" transform="translate(-19.995695,-240.03049)" xml:space="preserve" style="font-style:normal;font-variant:normal;font-weight:400;font-stretch:normal;font-size:41.45429611px;line-height:125%;font-family:Michroma;-inkscape-font-specification:Michroma;text-align:center;letter-spacing:0;word-spacing:0;text-anchor:middle;display:inline;fill:#000;fill-opacity:1;stroke:none;stroke-width:1px;stroke-linecap:butt;stroke-linejoin:miter;stroke-opacity:1"><flowRegion id="flowRegion4857-8-5"><rect id="rect4859-9-1" width="616.247" height="383.072" x="406.725" y="847.409" style="font-style:normal;font-variant:normal;font-weight:400;font-stretch:normal;font-size:41.45429611px;font-family:Michroma;-inkscape-font-specification:Michroma;text-align:center;text-anchor:middle"/></flowRegion><flowPara id="flowPara4861-7-7" style="font-style:normal;font-variant:normal;font-weight:400;font-stretch:normal;font-size:41.45429611px;font-family:Michroma;-inkscape-font-specification:Michroma;text-align:start;text-anchor:start"/><flowPara id="flowPara4863-3-4" style="font-style:normal;font-variant:normal;font-weight:400;font-stretch:normal;font-size:37.50000381px;font-family:Michroma;-inkscape-font-specification:Michroma;text-align:start;text-anchor:start">Germline</flowPara></flowRoot><g id="g5369" transform="translate(221.18206,658.29359)"><path id="path5280" d="m 117.90608,4e-5 c 0,-31.98037 -25.925273,-57.90611 -57.906104,-57.90611 -31.980369,0 -57.9060994,25.92574 -57.9060994,57.90611 0,31.980361 25.9257304,57.906099 57.9060994,57.906099 31.980831,0 57.906104,-25.925738 57.906104,-57.906099 z" style="fill:#fff;stroke:none;stroke-width:4.18779993;stroke-linecap:butt;stroke-linejoin:miter;stroke-miterlimit:10;stroke-dasharray:none;stroke-opacity:1"/><path id="path5282" d="m 45.33005,-26.80855 -3.867187,1.67382 -4.886719,30.77734 -10.748047,2.93164 0,38.107427 -0.0332,0.0469 c 9.584012,7.02713 21.41042,11.17773 34.205078,11.17773 25.579545,0 47.285075,-16.5858 54.949215,-39.589847 l 0.0957,0.0312 -0.0898,-0.0527 c 1.91353,-5.75078 2.95117,-11.90144 2.95117,-18.29492 0,-3.51077 -0.31177,-6.94701 -0.91016,-10.28516 L 45.33005,-26.80855 Z" style="fill:#aacbe6;fill-opacity:1;fill-rule:nonzero;stroke:none"/><path style="fill:#377eb8;fill-opacity:1;fill-rule:nonzero;stroke:none" id="path5284" d="m 115.04447,18.34822 -73.582435,-43.48285 -4.885301,30.778 -10.747755,2.93146 0,38.106187 -0.0335,0.0479 c 9.584013,7.02713 21.409894,11.17724 34.204553,11.17724 25.579547,0 47.284908,-16.58555 54.949048,-39.589607"/><path style="fill:none;stroke:#000;stroke-width:4.19957352;stroke-linecap:butt;stroke-linejoin:miter;stroke-miterlimit:10;stroke-dasharray:none;stroke-opacity:1" id="path5286" d="m 117.8941,0.03052935 c 0,-31.97712035 -25.922642,-57.90022535 -57.900222,-57.90022535 -31.977116,0 -57.9002148,25.923105 -57.9002148,57.90022535 0,31.97711065 25.9230988,57.90021365 57.9002148,57.90021365 31.97758,0 57.900222,-25.923103 57.900222,-57.90021365 z"/></g></g></g><g id="layer2" transform="translate(2.7783959e-5,59.99996)" style="display:none"><g style="display:inline" id="g3474"><flowRoot style="font-style:normal;font-variant:normal;font-weight:400;font-stretch:normal;font-size:52.46426392px;line-height:125%;font-family:Chandas;-inkscape-font-specification:Chandas;letter-spacing:0;word-spacing:0;display:inline;fill:#000;fill-opacity:1;stroke:none;stroke-width:1px;stroke-linecap:butt;stroke-linejoin:miter;stroke-opacity:1" id="flowRoot5674-6-8-3" transform="translate(2.9094459,-398.05499)" xml:space="preserve"><flowRegion id="flowRegion5676-1-5-3"><rect style="font-style:normal;font-variant:normal;font-weight:400;font-stretch:normal;font-size:52.46426392px;font-family:Chandas;-inkscape-font-specification:Chandas" id="rect5678-0-9-3" width="616.247" height="383.072" x="133.016" y="345.896"/></flowRegion><flowPara style="font-style:normal;font-variant:normal;font-weight:400;font-stretch:normal;font-size:50.00000381px;font-family:Michroma;-inkscape-font-specification:Michroma;text-align:start;text-anchor:start" id="flowPara5680-6-75-8">Sarek</flowPara><flowPara style="font-style:normal;font-variant:normal;font-weight:400;font-stretch:normal;font-family:'Eurostile Extended';-inkscape-font-specification:'Eurostile Extended';text-align:start;text-anchor:start" id="flowPara5682-3-3-0"/></flowRoot><path style="display:inline;fill:none;fill-opacity:1;fill-rule:evenodd;stroke:#e41a1c;stroke-width:4.20000029;stroke-linecap:butt;stroke-linejoin:miter;stroke-miterlimit:4;stroke-dasharray:none;stroke-opacity:1" id="path5765-9-47" d="m 167.89671,4.8706135 159.33698,0"/><flowRoot style="font-style:normal;font-variant:normal;font-weight:400;font-stretch:normal;font-size:41.45429611px;line-height:125%;font-family:Chandas;-inkscape-font-specification:Chandas;letter-spacing:0;word-spacing:0;display:inline;fill:#000;fill-opacity:1;stroke:none;stroke-width:1px;stroke-linecap:butt;stroke-linejoin:miter;stroke-opacity:1" id="flowRoot4835-4-8" transform="translate(-12.814241,-398.10894)" xml:space="preserve"><flowRegion id="flowRegion4837-7-6"><rect style="font-style:normal;font-variant:normal;font-weight:400;font-stretch:normal;font-size:41.45429611px;font-family:Chandas;-inkscape-font-specification:Chandas" id="rect4839-8-8" width="616.247" height="383.072" x="178.368" y="347.118"/></flowRegion><flowPara style="font-style:normal;font-variant:normal;font-weight:400;font-stretch:normal;font-size:41.45429611px;font-family:'Eurostile Extended';-inkscape-font-specification:'Eurostile Extended';text-align:start;text-anchor:start" id="flowPara4841-4-3"/><flowPara style="font-style:normal;font-variant:normal;font-weight:400;font-stretch:normal;font-size:37.50000381px;font-family:Michroma;-inkscape-font-specification:Michroma;text-align:start;text-anchor:start" id="flowPara4843-5-8">Somatic</flowPara></flowRoot><g id="g5381" transform="translate(0.00609577,-240.00609)"><path id="path5300" d="m 117.90608,240.00004 c 0,-31.98037 -25.925273,-57.90611 -57.906104,-57.90611 -31.980369,0 -57.9060994,25.92574 -57.9060994,57.90611 0,31.98036 25.9257304,57.9061 57.9060994,57.9061 31.980831,0 57.906104,-25.92574 57.906104,-57.9061 z" style="fill:#fff;stroke:none;stroke-width:4.18779993;stroke-linecap:butt;stroke-linejoin:miter;stroke-miterlimit:10;stroke-dasharray:none;stroke-opacity:1"/><path id="path5302" d="m 45.33005,213.19145 -3.867187,1.67382 -4.886719,30.77734 -10.748047,2.93164 0,38.10743 -0.0332,0.0469 c 9.584012,7.02713 21.41042,11.17773 34.205078,11.17773 25.579545,0 47.285075,-16.5858 54.949215,-39.58985 l 0.0957,0.0312 -0.0898,-0.0527 c 1.91353,-5.75078 2.95117,-11.90144 2.95117,-18.29492 0,-3.51077 -0.31177,-6.94701 -0.91016,-10.28516 L 45.33005,213.19145 Z" style="fill:#f49c9d;fill-opacity:1;fill-rule:nonzero;stroke:none"/><path style="fill:#e41a1c;fill-opacity:1;fill-rule:nonzero;stroke:none" id="path5304" d="m 115.04447,258.34822 -73.582435,-43.48285 -4.885301,30.778 -10.747755,2.93146 0,38.10619 -0.0335,0.0479 c 9.584013,7.02713 21.409894,11.17724 34.204553,11.17724 25.579547,0 47.284908,-16.58555 54.949048,-39.58961"/><path style="fill:none;stroke:#000;stroke-width:4.19957352;stroke-linecap:butt;stroke-linejoin:miter;stroke-miterlimit:10;stroke-dasharray:none;stroke-opacity:1" id="path5306" d="m 117.8941,240.00614 c 0,-31.97712 -25.922642,-57.90023 -57.900222,-57.90023 -31.977116,0 -57.9002148,25.92311 -57.9002148,57.90023 0,31.97711 25.9230988,57.90021 57.9002148,57.90021 31.97758,0 57.900222,-25.9231 57.900222,-57.90021 z"/></g></g></g><g id="layer3" transform="translate(2.7783959e-5,59.99996)" style="display:none"><g style="display:inline" id="g3439"><flowRoot style="font-style:normal;font-variant:normal;font-weight:400;font-stretch:normal;font-size:52.46426392px;line-height:125%;font-family:Chandas;-inkscape-font-specification:Chandas;letter-spacing:0;word-spacing:0;display:inline;fill:#000;fill-opacity:1;stroke:none;stroke-width:1px;stroke-linecap:butt;stroke-linejoin:miter;stroke-opacity:1" id="flowRoot5674-6-2" transform="translate(2.9094459,-271.6004)" xml:space="preserve"><flowRegion id="flowRegion5676-1-2"><rect style="font-style:normal;font-variant:normal;font-weight:400;font-stretch:normal;font-size:52.46426392px;font-family:Chandas;-inkscape-font-specification:Chandas" id="rect5678-0-6" width="616.247" height="383.072" x="133.016" y="219.43"/></flowRegion><flowPara style="font-style:normal;font-variant:normal;font-weight:400;font-stretch:normal;font-size:50.00000381px;font-family:Michroma;-inkscape-font-specification:Michroma;text-align:start;text-anchor:start" id="flowPara5680-6-4">Sarek</flowPara><flowPara style="font-style:normal;font-variant:normal;font-weight:400;font-stretch:normal;font-size:50.00000381px;font-family:Michroma;-inkscape-font-specification:Michroma;text-align:start;text-anchor:start" id="flowPara5682-3-1"/></flowRoot><path style="display:inline;fill:none;fill-opacity:1;fill-rule:evenodd;stroke:#974ea2;stroke-width:4.20000029;stroke-linecap:butt;stroke-linejoin:miter;stroke-miterlimit:4;stroke-dasharray:none;stroke-opacity:1" id="path5765-8" d="m 167.8967,4.8706135 159.33699,0"/><flowRoot id="flowRoot4845-2-2" transform="translate(-13.488069,-271.4019)" xml:space="preserve" style="font-style:normal;font-variant:normal;font-weight:400;font-stretch:normal;font-size:41.45429611px;line-height:125%;font-family:Chandas;-inkscape-font-specification:Chandas;letter-spacing:0;word-spacing:0;display:inline;fill:#000;fill-opacity:1;stroke:none;stroke-width:1px;stroke-linecap:butt;stroke-linejoin:miter;stroke-opacity:1"><flowRegion id="flowRegion4847-0-8"><rect id="rect4849-6-8" width="616.247" height="383.072" x="177.869" y="220.654" style="font-style:normal;font-variant:normal;font-weight:400;font-stretch:normal;font-size:41.45429611px;font-family:Chandas;-inkscape-font-specification:Chandas"/></flowRegion><flowPara id="flowPara4851-1-9" style="font-style:normal;font-variant:normal;font-weight:400;font-stretch:normal;font-size:41.45429611px;font-family:'Eurostile Extended';-inkscape-font-specification:'Eurostile Extended';text-align:start;text-anchor:start"/><flowPara id="flowPara4853-5-28" style="font-style:normal;font-variant:normal;font-weight:400;font-stretch:normal;font-size:37.50000381px;font-family:Michroma;-inkscape-font-specification:Michroma;text-align:start;text-anchor:start">Exome</flowPara></flowRoot><g id="g5375" transform="translate(0.00609577,-120.01829)"><path style="fill:#fff;stroke:none;stroke-width:4.18779993;stroke-linecap:butt;stroke-linejoin:miter;stroke-miterlimit:10;stroke-dasharray:none;stroke-opacity:1" id="path5290" d="m 117.90608,120.00004 c 0,-31.98037 -25.925273,-57.90611 -57.906104,-57.90611 -31.980369,0 -57.9060994,25.92574 -57.9060994,57.90611 0,31.98036 25.9257304,57.9061 57.9060994,57.9061 31.980831,0 57.906104,-25.92574 57.906104,-57.9061 z"/><path style="fill:#d6b5db;fill-opacity:1;fill-rule:nonzero;stroke:none" id="path5292" d="m 45.33005,93.19145 -3.867187,1.67382 -4.886719,30.77734 -10.748047,2.93164 0,38.10743 -0.0332,0.0469 c 9.584012,7.02713 21.41042,11.17773 34.205078,11.17773 25.579545,0 47.285075,-16.5858 54.949215,-39.58985 l 0.0957,0.0312 -0.0898,-0.0527 c 1.91353,-5.75078 2.95117,-11.90144 2.95117,-18.29492 0,-3.51077 -0.31177,-6.94701 -0.91016,-10.28516 L 45.33005,93.19145 Z"/><path id="path5294" d="m 115.04447,138.34822 -73.582435,-43.48285 -4.885301,30.778 -10.747755,2.93146 0,38.10619 -0.0335,0.0479 c 9.584013,7.02713 21.409894,11.17724 34.204553,11.17724 25.579547,0 47.284908,-16.58555 54.949048,-39.58961" style="fill:#974ea2;fill-opacity:1;fill-rule:nonzero;stroke:none"/><path id="path5296" d="m 117.8941,120.01833 c 0,-31.977116 -25.922642,-57.900221 -57.900222,-57.900221 -31.977116,0 -57.9002148,25.923105 -57.9002148,57.900221 0,31.97711 25.9230988,57.90022 57.9002148,57.90022 31.97758,0 57.900222,-25.92311 57.900222,-57.90022 z" style="fill:none;stroke:#000;stroke-width:4.19957352;stroke-linecap:butt;stroke-linejoin:miter;stroke-miterlimit:10;stroke-dasharray:none;stroke-opacity:1"/></g></g></g><g id="layer4" transform="translate(2.7783959e-5,59.99996)" style="display:inline"><g style="display:inline" id="g3414"><flowRoot id="flowRoot5349-3" transform="translate(170.97195,-1611.369)" xml:space="preserve" style="font-style:normal;font-variant:normal;font-weight:400;font-stretch:normal;font-size:52.46426392px;line-height:125%;font-family:Chandas;-inkscape-font-specification:Chandas;letter-spacing:0;word-spacing:0;display:inline;fill:#000;fill-opacity:1;stroke:none;stroke-width:1px;stroke-linecap:butt;stroke-linejoin:miter;stroke-opacity:1"><flowRegion id="flowRegion5351-1"><rect id="rect5353-4" width="616.247" height="383.072" x="-35.048" y="1559.174" style="font-style:normal;font-variant:normal;font-weight:400;font-stretch:normal;font-size:52.46426392px;font-family:Chandas;-inkscape-font-specification:Chandas"/></flowRegion><flowPara id="flowPara5355-6" style="font-style:normal;font-variant:normal;font-weight:400;font-stretch:normal;font-size:50.00000381px;font-family:Michroma;-inkscape-font-specification:Michroma;text-align:start;text-anchor:start">Sarek</flowPara><flowPara id="flowPara5357-9" style="font-style:normal;font-variant:normal;font-weight:400;font-stretch:normal;font-family:'Eurostile Extended';-inkscape-font-specification:'Eurostile Extended';text-align:start;text-anchor:start"/></flowRoot><path id="path4964-31-4" d="m 167.8967,4.8706135 159.33699,0" style="display:inline;fill:none;fill-opacity:1;fill-rule:evenodd;stroke:#4daf4a;stroke-width:4.20000029;stroke-linecap:butt;stroke-linejoin:miter;stroke-miterlimit:4;stroke-dasharray:none;stroke-opacity:1"/><g id="g5363" transform="translate(0.00609597,119.95733)" style="display:inline"><path style="fill:#fff;stroke:none;stroke-width:4.18779993;stroke-linecap:butt;stroke-linejoin:miter;stroke-miterlimit:10;stroke-dasharray:none;stroke-opacity:1" id="path4113" d="m 117.90608,-119.99997 c 0,-31.98037 -25.925273,-57.90611 -57.906104,-57.90611 -31.980369,0 -57.9060996,25.92574 -57.9060996,57.90611 0,31.980361 25.9257306,57.906099 57.9060996,57.906099 31.980831,0 57.906104,-25.925738 57.906104,-57.906099 z"/><path style="fill:#b3deb2;fill-opacity:1;fill-rule:nonzero;stroke:none" id="path4117" d="m 45.33005,-146.80856 -3.867187,1.67382 -4.886719,30.77734 -10.748047,2.93164 0,38.107427 -0.0332,0.0469 c 9.584012,7.02713 21.41042,11.17773 34.205078,11.17773 25.579545,0 47.285075,-16.5858 54.949215,-39.589847 l 0.0957,0.0312 -0.0898,-0.0527 c 1.91353,-5.75078 2.95117,-11.90144 2.95117,-18.29492 0,-3.51077 -0.31177,-6.94701 -0.91016,-10.28516 l -71.66605,-16.52343 z"/><path id="path172" d="m 115.04447,-101.65179 -73.582435,-43.48285 -4.885301,30.778 -10.747755,2.93146 0,38.106187 -0.0335,0.0479 c 9.584013,7.02713 21.409894,11.17724 34.204553,11.17724 25.579547,0 47.284908,-16.58555 54.949048,-39.589607" style="fill:#4daf4a;fill-opacity:1;fill-rule:nonzero;stroke:none"/><path id="path220" d="m 117.8941,-119.95729 c 0,-31.97712 -25.922642,-57.90022 -57.900222,-57.90022 -31.977116,0 -57.900215,25.9231 -57.900215,57.90022 0,31.977116 25.923099,57.900219 57.900215,57.900219 31.97758,0 57.900222,-25.923103 57.900222,-57.900219 z" style="fill:none;stroke:#000;stroke-width:4.19957352;stroke-linecap:butt;stroke-linejoin:miter;stroke-miterlimit:10;stroke-dasharray:none;stroke-opacity:1"/></g></g></g></svg>